<?xml version="1.0" standalone="no"?>
<!DOCTYPE svg PUBLIC "-//W3C//DTD SVG 1.1//EN"
"http://www.w3.org/Graphics/SVG/1.1/DTD/svg11.dtd">

<svg width="376" height="372" view_box="0 0 376 372"
xmlns="http://www.w3.org/2000/svg"
xmlns:link="http://www.w3.org/1999/xlink">\n\n<desc>Généré par Mocodo 2.3.7 le Wed, 09 Mar 2022 05:49:55</desc>

<rect id="frame" x="0" y="0" width="376" height="372" fill="#ffffbf" stroke="none" stroke-width="0"/>

<!-- Association is type of -->
<line x1="209" y1="178" x2="329" y2="178" stroke="#f46d43" stroke-width="2"/>
<text x="266" y="195.0" fill="#3288bd" font-family="Verdana" font-size="12">1,1</text>
<line x1="329" y1="43" x2="329" y2="178" stroke="#f46d43" stroke-width="2"/>
<text x="334.0" y="94" fill="#3288bd" font-family="Verdana" font-size="12">0,N</text>
<g id="association-is type of">
	<path d="M 351 153 a 14 14 90 0 1 14 14 V 178 h -72 V 167 a 14 14 90 0 1 14 -14" fill="#fdae61" stroke="#fdae61" stroke-width="0"/>
	<path d="M 365 178.0 v 11 a 14 14 90 0 1 -14 14 H 307 a 14 14 90 0 1 -14 -14 V 178.0 H 72" fill="#fee08b" stroke="#fee08b" stroke-width="0"/>
	<rect x="293" y="153" width="72" height="50" fill="none" rx="14" stroke="#f46d43" stroke-width="2"/>
	<line x1="293" y1="178" x2="365" y2="178" stroke="#f46d43" stroke-width="1"/>
	<text x="300" y="170.7" fill="#000000" font-family="Verdana" font-size="12">is type of</text>
</g>

<!-- Association is made by -->
<line x1="209" y1="178" x2="209" y2="43" stroke="#f46d43" stroke-width="2"/>
<text x="214.0" y="94" fill="#3288bd" font-family="Verdana" font-size="12">1,1</text>
<line x1="64" y1="43" x2="209" y2="43" stroke="#f46d43" stroke-width="2"/>
<text x="111" y="60.0" fill="#3288bd" font-family="Verdana" font-size="12">0,N</text>
<g id="association-is made by">
	<path d="M 236 18 a 14 14 90 0 1 14 14 V 43 h -82 V 32 a 14 14 90 0 1 14 -14" fill="#fdae61" stroke="#fdae61" stroke-width="0"/>
	<path d="M 250 43.0 v 11 a 14 14 90 0 1 -14 14 H 182 a 14 14 90 0 1 -14 -14 V 43.0 H 82" fill="#fee08b" stroke="#fee08b" stroke-width="0"/>
	<rect x="168" y="18" width="82" height="50" fill="none" rx="14" stroke="#f46d43" stroke-width="2"/>
	<line x1="168" y1="43" x2="250" y2="43" stroke="#f46d43" stroke-width="1"/>
	<text x="175" y="35.7" fill="#000000" font-family="Verdana" font-size="12">is made by</text>
</g>

<!-- Association is categorised as -->
<line x1="209" y1="178" x2="209" y2="304" stroke="#f46d43" stroke-width="2"/>
<text x="214.0" y="271" fill="#3288bd" font-family="Verdana" font-size="12">0,1</text>
<line x1="64" y1="304" x2="209" y2="304" stroke="#f46d43" stroke-width="2"/>
<text x="124" y="321.0" fill="#3288bd" font-family="Verdana" font-size="12">0,N</text>
<g id="association-is categorised as">
	<path d="M 253 279 a 14 14 90 0 1 14 14 V 304 h -116 V 293 a 14 14 90 0 1 14 -14" fill="#fdae61" stroke="#fdae61" stroke-width="0"/>
	<path d="M 267 304.0 v 11 a 14 14 90 0 1 -14 14 H 165 a 14 14 90 0 1 -14 -14 V 304.0 H 116" fill="#fee08b" stroke="#fee08b" stroke-width="0"/>
	<rect x="151" y="279" width="116" height="50" fill="none" rx="14" stroke="#f46d43" stroke-width="2"/>
	<line x1="151" y1="304" x2="267" y2="304" stroke="#f46d43" stroke-width="1"/>
	<text x="158" y="296.7" fill="#000000" font-family="Verdana" font-size="12">is categorised as</text>
</g>

<!-- Entity CATEGORY -->
<g id="entity-CATEGORY">
	<g id="frame-CATEGORY">
		<rect x="9" y="245" width="110" height="25" fill="#abdda4" stroke="#abdda4" stroke-width="0"/>
		<rect x="9" y="270.0" width="110" height="93" fill="#e6f598" stroke="#e6f598" stroke-width="0"/>
		<rect x="9" y="245" width="110" height="118" fill="none" stroke="#66c2a5" stroke-width="2"/>
		<line x1="9" y1="270" x2="119" y2="270" stroke="#66c2a5" stroke-width="1"/>
	</g>
	<text x="30" y="262.7" fill="#000000" font-family="Verdana" font-size="12">CATEGORY</text>
	<text x="14" y="287.7" fill="#000000" font-family="Verdana" font-size="12">category code</text>
	<line x1="14" y1="290" x2="100" y2="290" stroke="#000000" stroke-width="1"/>
	<text x="14" y="304.8" fill="#000000" font-family="Verdana" font-size="12">category name</text>
	<text x="14" y="321.8" fill="#000000" font-family="Verdana" font-size="12">subtitle</text>
	<text x="14" y="338.8" fill="#000000" font-family="Verdana" font-size="12">category picture</text>
	<text x="14" y="355.8" fill="#000000" font-family="Verdana" font-size="12">home order</text>
</g>

<!-- Entity BRAND -->
<g id="entity-BRAND">
	<g id="frame-BRAND">
		<rect x="22" y="9" width="84" height="25" fill="#abdda4" stroke="#abdda4" stroke-width="0"/>
		<rect x="22" y="34.0" width="84" height="43" fill="#e6f598" stroke="#e6f598" stroke-width="0"/>
		<rect x="22" y="9" width="84" height="68" fill="none" stroke="#66c2a5" stroke-width="2"/>
		<line x1="22" y1="34" x2="106" y2="34" stroke="#66c2a5" stroke-width="1"/>
	</g>
	<text x="42" y="26.7" fill="#000000" font-family="Verdana" font-size="12">BRAND</text>
	<text x="27" y="51.8" fill="#000000" font-family="Verdana" font-size="12">brand code</text>
	<line x1="27" y1="54" x2="95" y2="54" stroke="#000000" stroke-width="1"/>
	<text x="27" y="68.8" fill="#000000" font-family="Verdana" font-size="12">brand name</text>
</g>

<!-- Entity TYPE -->
<g id="entity-TYPE">
	<g id="frame-TYPE">
		<rect x="291" y="9" width="76" height="25" fill="#abdda4" stroke="#abdda4" stroke-width="0"/>
		<rect x="291" y="34.0" width="76" height="43" fill="#e6f598" stroke="#e6f598" stroke-width="0"/>
		<rect x="291" y="9" width="76" height="68" fill="none" stroke="#66c2a5" stroke-width="2"/>
		<line x1="291" y1="34" x2="367" y2="34" stroke="#66c2a5" stroke-width="1"/>
	</g>
	<text x="313" y="26.7" fill="#000000" font-family="Verdana" font-size="12">TYPE</text>
	<text x="296" y="51.8" fill="#000000" font-family="Verdana" font-size="12">type code</text>
	<line x1="296" y1="54" x2="356" y2="54" stroke="#000000" stroke-width="1"/>
	<text x="296" y="68.8" fill="#000000" font-family="Verdana" font-size="12">type name</text>
</g>

<!-- Entity PRODUCT -->
<g id="entity-PRODUCT">
	<g id="frame-PRODUCT">
		<rect x="157" y="102" width="104" height="25" fill="#abdda4" stroke="#abdda4" stroke-width="0"/>
		<rect x="157" y="127.0" width="104" height="127" fill="#e6f598" stroke="#e6f598" stroke-width="0"/>
		<rect x="157" y="102" width="104" height="152" fill="none" stroke="#66c2a5" stroke-width="2"/>
		<line x1="157" y1="127" x2="261" y2="127" stroke="#66c2a5" stroke-width="1"/>
	</g>
	<text x="179" y="119.7" fill="#000000" font-family="Verdana" font-size="12">PRODUCT</text>
	<text x="162" y="144.7" fill="#000000" font-family="Verdana" font-size="12">product code</text>
	<line x1="162" y1="147" x2="241" y2="147" stroke="#000000" stroke-width="1"/>
	<text x="162" y="161.7" fill="#000000" font-family="Verdana" font-size="12">product name</text>
	<text x="162" y="178.8" fill="#000000" font-family="Verdana" font-size="12">description</text>
	<text x="162" y="195.8" fill="#000000" font-family="Verdana" font-size="12">product picture</text>
	<text x="162" y="212.8" fill="#000000" font-family="Verdana" font-size="12">price</text>
	<text x="162" y="229.8" fill="#000000" font-family="Verdana" font-size="12">rating</text>
	<text x="162" y="246.8" fill="#000000" font-family="Verdana" font-size="12">status</text>
</g>
</svg>